<?xml version="1.0" encoding="UTF-8" standalone="no"?><!DOCTYPE svg PUBLIC "-//W3C//DTD SVG 1.1//EN" "http://www.w3.org/Graphics/SVG/1.1/DTD/svg11.dtd"><svg width="100%" height="100%" viewBox="0 0 1257 1257" version="1.1" xmlns="http://www.w3.org/2000/svg" xmlns:xlink="http://www.w3.org/1999/xlink" xml:space="preserve" xmlns:serif="http://www.serif.com/" style="fill-rule:evenodd;clip-rule:evenodd;stroke-linejoin:round;stroke-miterlimit:2;"><g><path d="M1165.23,615.09c-18.132,0 -32.638,14.506 -32.638,32.639l0,325.9c0,80.75 -65.76,117.256 -146.268,117.256l-716.11,0c-80.75,0 -146.269,-36.748 -146.269,-117.256l0,-330.736c0,-18.132 -14.506,-32.638 -32.638,-32.638c-18.132,0 -32.638,14.506 -32.638,32.638l0,330.736c0,116.773 95.014,182.533 211.545,182.533l716.11,0c116.773,0 211.545,-66.002 211.545,-182.533l0,-325.9c0,-17.891 -14.506,-32.639 -32.639,-32.639Z" style="fill:#234b90;fill-rule:nonzero;stroke:#234b90;stroke-width:16.92px;"/><path d="M605.299,896.989c6.286,6.286 14.748,9.671 22.968,9.671c8.22,0 16.682,-3.143 22.967,-9.671l207.435,-207.435c12.814,-12.813 12.814,-33.363 0,-46.177c-12.813,-12.814 -33.363,-12.814 -46.177,0l-151.587,151.829l0,-662.196c0,-18.133 -14.506,-32.639 -32.638,-32.639c-18.133,0 -32.639,14.506 -32.639,32.639l0,662.196l-151.829,-151.829c-12.813,-12.814 -33.363,-12.814 -46.177,0c-12.813,12.814 -12.813,33.364 0,46.177l207.677,207.435Z" style="fill:#234b90;fill-rule:nonzero;stroke:#234b90;stroke-width:16.92px;"/></g></svg>