<?xml version="1.0" encoding="UTF-8" standalone="no"?><!DOCTYPE svg PUBLIC "-//W3C//DTD SVG 1.1//EN" "http://www.w3.org/Graphics/SVG/1.1/DTD/svg11.dtd"><svg width="100%" height="100%" viewBox="0 0 3352 3352" version="1.1" xmlns="http://www.w3.org/2000/svg" xmlns:xlink="http://www.w3.org/1999/xlink" xml:space="preserve" xmlns:serif="http://www.serif.com/" style="fill-rule:evenodd;clip-rule:evenodd;stroke-linejoin:round;stroke-miterlimit:2;"><g><path d="M3107.28,1640.24c-48.352,0 -87.035,38.683 -87.035,87.037l0,869.067c0,215.333 -175.36,312.683 -390.048,312.683l-1909.63,0c-215.334,0 -390.051,-97.995 -390.051,-312.683l0,-881.963c0,-48.352 -38.683,-87.034 -87.035,-87.034c-48.352,0 -87.034,38.682 -87.034,87.034l0,881.963c0,311.395 253.37,486.755 564.12,486.755l1909.63,0c311.395,0 564.12,-176.006 564.12,-486.755l0,-869.067c0,-47.709 -38.682,-87.037 -87.037,-87.037Z" style="fill:#fff;fill-rule:nonzero;stroke:#fff;stroke-width:45.12px;"/><path d="M1614.13,2391.97c16.762,16.762 39.328,25.789 61.248,25.789c21.92,0 44.485,-8.381 61.245,-25.789l553.16,-553.16c34.171,-34.168 34.171,-88.968 0,-123.139c-34.168,-34.171 -88.968,-34.171 -123.139,0l-404.232,404.877l0,-1765.86c0,-48.354 -38.682,-87.037 -87.034,-87.037c-48.355,0 -87.038,38.683 -87.038,87.037l0,1765.86l-404.877,-404.877c-34.168,-34.171 -88.968,-34.171 -123.139,0c-34.168,34.171 -34.168,88.971 0,123.139l553.806,553.16Z" style="fill:#fff;fill-rule:nonzero;stroke:#fff;stroke-width:45.12px;"/></g></svg>