<?xml version="1.0" encoding="UTF-8" standalone="no"?><!DOCTYPE svg PUBLIC "-//W3C//DTD SVG 1.1//EN" "http://www.w3.org/Graphics/SVG/1.1/DTD/svg11.dtd"><svg width="100%" height="100%" viewBox="0 0 600 119" version="1.1" xmlns="http://www.w3.org/2000/svg" xmlns:xlink="http://www.w3.org/1999/xlink" xml:space="preserve" xmlns:serif="http://www.serif.com/" style="fill-rule:evenodd;clip-rule:evenodd;stroke-linejoin:round;stroke-miterlimit:2;"><path d="M109.072,117.831l20.3,0l15.8,-59.2l-20.2,0l-15.9,59.2Z" style="fill:#005b76;"/><path d="M213.072,117.831l20.2,0l15.9,-59.2l-20.2,0l-15.9,59.2Z" style="fill:#005b76;"/><path d="M317.072,117.831l20.2,0l15.9,-59.2l-20.2,0l-15.9,59.2Z" style="fill:#005b76;"/><g><path d="M194.272,78.931l20.3,0c2.7,-13.3 -5.9,-20.2 -25.8,-20.2c-23,0 -38.6,11.2 -43.8,30.8c-4.7,17.7 4.6,28.5 26.3,28.5c21.8,0 34.8,-6.8 40.3,-22l-20.3,0c-2.8,6.7 -8.2,10.2 -15.3,10.2c-9.8,0 -13.6,-6.2 -10.6,-17.5c3.1,-11.7 10.5,-18.2 20.4,-18.2c6,0 8.9,2.8 8.5,8.4" style="fill:#005b76;"/><path d="M298.272,78.931l20.3,0c2.7,-13.3 -5.9,-20.2 -25.8,-20.2c-23,0 -38.6,11.2 -43.8,30.8c-4.7,17.7 4.6,28.5 26.3,28.5c21.8,0 34.8,-6.8 40.3,-22l-20.3,0c-2.8,6.7 -8.2,10.2 -15.3,10.2c-9.8,0 -13.6,-6.2 -10.6,-17.5c3.1,-11.7 10.5,-18.2 20.4,-18.2c6,0 8.9,2.8 8.5,8.4" style="fill:#005b76;"/><path d="M30.872,25.731c27.1,-26.9 59.9,-33.8 73,-15.5c13.1,18.4 1.6,55.3 -25.5,82.1c-27.1,26.9 -59.9,33.8 -73,15.5c-13,-18.3 -1.6,-55.2 25.5,-82.1" style="fill:#f99d28;"/><path d="M48.872,11.431c-2.9,2.2 -6,4.8 -9,7.7c-23.8,23.4 -33.6,55.6 -21.9,71.7c12.1,16.1 41.3,10.2 65.4,-13.5c13,-12.6 21.8,-27.4 25.4,-41.1c1.1,-10.1 -0.4,-19 -4.9,-25.8c-10.4,-14.3 -32.7,-13.2 -55,1" style="fill:#af2a30;"/><path d="M62.272,105.731c-12.7,9.5 -25.8,14.3 -38.6,12.3c5.4,0.3 9.7,-5.7 13.3,-13.7c3.6,-8.2 5.8,-15.8 7.5,-22.9c2.5,-11.3 2.7,-19.3 1.4,-21c-2.2,-2.9 -7.1,-2.1 -12.7,1.1c-2.7,1.5 -6.2,0.5 -2,-4.6c4.3,-5.1 21.1,-17.5 27.2,-19.4c6.7,-1.9 14.3,0.7 11.7,8c-1.8,5.2 -25.2,66.6 -7.8,60.2m19.1,-95.1c3.2,3.2 1.2,10.1 -4.1,15.5c-5.4,5.4 -12.5,7.3 -15.6,4.2c-3.3,-3.1 -1.3,-10.1 4.1,-15.6c5.5,-5.5 12.6,-7.2 15.6,-4.1" style="fill:#fff;"/><path d="M383.572,108.531l4.6,-17.3l13.3,0c10.2,0 14.7,1.8 12.9,8.8c-1.7,6.4 -6.7,8.5 -15.9,8.5l-14.9,0m10.9,-40.7l12.6,0c9.5,0 13.8,1.1 12.3,7.1c-1.6,5.9 -6.7,7.4 -16.5,7.4l-12.3,0l3.9,-14.5Zm-26.2,50.1l30.4,0c8.6,0 15.1,-0.7 21.2,-4.9c4.1,-2.8 7.2,-7.1 8.4,-11.8c2.2,-8.1 -1.5,-13.6 -10.8,-14.9c8.8,-1.6 14.3,-6.2 16.1,-13.2c1.5,-5.4 0.3,-9.3 -3.6,-11.9c-3.2,-2.1 -8.5,-2.5 -15.6,-2.5l-30.2,0l-15.9,59.2Z" style="fill:#005b76;"/><path d="M466.472,98.931l-0.2,0.7c-2,7.7 -8.2,12.3 -15.8,12.3c-5.5,0 -7.8,-2.1 -6.8,-6.1c1.5,-5.4 6.2,-6.9 15,-6.9l7.8,0m-4.8,19l12.2,0c0.3,-2.8 1,-5.8 1.9,-9.2l4.4,-16.5c2.9,-10.9 -2.5,-16.5 -16.2,-16.5c-13.2,0 -21.9,4.6 -24.5,12.3l11.7,0c1.5,-3.9 4.9,-5.7 10.5,-5.7c6.3,0 8.5,2.8 6.9,8.8l-0.2,0.7l-6.4,0c-18.1,0 -27.9,3.3 -30.7,13.7c-2.2,8.1 2.9,13.3 13.7,13.3c7,0 13.1,-2.3 18,-6.7l-1.3,5.8Z" style="fill:#005b76;"/><path d="M484.372,117.931l12.3,0l5.7,-21.1c2.1,-7.7 9.1,-13 16.4,-13c7.2,0 9.7,4.2 7.4,12.6l-5.8,21.6l12,0l6.8,-25.3c2.9,-10.7 -2.6,-16.9 -14.5,-16.9c-7.7,0 -14,2.6 -19.3,8.2l1.5,-7.3l-12.1,0c-1.2,6.5 -2.1,10.5 -2.5,12.1l-7.9,29.1" style="fill:#005b76;"/><path d="M543.172,117.931l11.9,0l6,-22.3l16.1,22.3l16.4,0l-18.2,-23.6l24.6,-17.7l-15.4,0l-22.9,16.7l9.3,-34.6l-11.9,0l-15.9,59.2Z" style="fill:#005b76;"/></g></svg>